<?xml version="1.0" encoding="UTF-8"?>
<svg width="200" height="200" viewBox="0 0 200 200" xmlns="http://www.w3.org/2000/svg">
  <!-- Background circle -->
  <circle cx="100" cy="100" r="90" fill="#1a1a2e" stroke="#16213e" stroke-width="2"/>
  
  <!-- AI Brain representation -->
  <g transform="translate(100, 80)">
    <!-- Main brain shape -->
    <path d="M-25,-15 Q-35,-25 -25,-35 Q-15,-40 0,-35 Q15,-40 25,-35 Q35,-25 25,-15 Q30,-5 25,5 Q15,15 0,20 Q-15,15 -25,5 Q-30,-5 -25,-15" 
          fill="#4a90e2" stroke="#2c3e50" stroke-width="1.5"/>
    
    <!-- Neural connections -->
    <line x1="-20" y1="-20" x2="-15" y2="-10" stroke="#e74c3c" stroke-width="2"/>
    <line x1="20" y1="-20" x2="15" y2="-10" stroke="#e74c3c" stroke-width="2"/>
    <line x1="-15" y1="10" x2="-10" y2="15" stroke="#e74c3c" stroke-width="2"/>
    <line x1="15" y1="10" x2="10" y2="15" stroke="#e74c3c" stroke-width="2"/>
    
    <!-- Circuit elements -->
    <circle cx="-30" cy="-30" r="3" fill="#f39c12"/>
    <circle cx="30" cy="-30" r="3" fill="#f39c12"/>
    <circle cx="-30" cy="30" r="3" fill="#f39c12"/>
    <circle cx="30" cy="30" r="3" fill="#f39c12"/>
  </g>
  
  <!-- Electronics symbols -->
  <g transform="translate(100, 140)">
    <!-- Resistor symbol -->
    <rect x="-15" y="-3" width="30" height="6" fill="none" stroke="#95a5a6" stroke-width="2"/>
    <line x1="-15" y1="0" x2="-5" y2="0" stroke="#95a5a6" stroke-width="2"/>
    <line x1="5" y1="0" x2="15" y2="0" stroke="#95a5a6" stroke-width="2"/>
    <line x1="-5" y1="-3" x2="-5" y2="3" stroke="#95a5a6" stroke-width="2"/>
    <line x1="5" y1="-3" x2="5" y2="3" stroke="#95a5a6" stroke-width="2"/>
  </g>
  
  <!-- Text -->
  <text x="100" y="180" text-anchor="middle" font-family="Arial, sans-serif" font-size="16" font-weight="bold" fill="#ecf0f1">
    LumiAI Electronics
  </text>
</svg>
